<svg xmlns="http://www.w3.org/2000/svg" viewBox="0 0 600 290"><rect width="600" height="290" fill="#e3edf7"/><circle cx="493" cy="35" r="153" fill="#fff" opacity=".35"/><rect x="105" y="48" width="390" height="196" rx="15" fill="white"/><path d="M120 48h360q15 0 15 15v33H105V63q0-15 15-15" fill="#507bb8"/><g fill="#edf4ff"><circle cx="130" cy="72" r="5"/><circle cx="148" cy="72" r="5"/><rect x="175" y="66" width="102" height="12" rx="5"/></g><g stroke="#dce6f1" stroke-width="2"><path d="M105 145H495M105 194H495M219 96V244M366 96V244"/></g><g fill="#a9c1df"><rect x="125" y="113" width="73" height="12" rx="5"/><rect x="240" y="113" width="102" height="12" rx="5"/><rect x="125" y="162" width="62" height="12" rx="5"/><rect x="240" y="162" width="83" height="12" rx="5"/><rect x="125" y="211" width="77" height="12" rx="5"/><rect x="240" y="211" width="98" height="12" rx="5"/></g><g fill="#c9e4db"><rect x="388" y="109" width="83" height="23" rx="11"/><rect x="388" y="158" width="65" height="23" rx="11"/><rect x="388" y="207" width="76" height="23" rx="11"/></g></svg>
