<svg xmlns="http://www.w3.org/2000/svg" viewBox="0 0 600 290"><rect width="600" height="290" fill="#daeafa"/><g stroke="#84acca" stroke-width="1" opacity=".4"><path d="M0 230L300 90L600 230M0 270L300 130L600 270M100 290L300 180L500 290M100 180L350 290M200 130L480 290M500 180L250 290M400 130L120 290" fill="none"/></g><path d="M235 103L300 66L365 103V181L300 219L235 181Z" fill="#5795c2"/><path d="M235 103L300 141L365 103M300 141V219" fill="none" stroke="#d2efff" stroke-width="3"/><circle cx="268" cy="155" r="8" fill="white"/><circle cx="331" cy="155" r="8" fill="white"/><rect x="387" y="48" width="96" height="48" rx="24" fill="#2c5b83"/><path d="M428 60L446 72L428 84Z" fill="white"/></svg>
