<svg xmlns="http://www.w3.org/2000/svg" viewBox="0 0 600 290"><rect width="600" height="290" fill="#e7eee8"/><circle cx="480" cy="38" r="135" fill="#f5f4e6"/><rect x="123" y="60" width="238" height="171" rx="13" fill="#fffdf8"/><path d="M136 60h212q13 0 13 13v29H123V73q0-13 13-13" fill="#8fae9c"/><path d="M174 48v27m137-27v27" stroke="#5f8174" stroke-width="10" stroke-linecap="round"/><path d="M151 131h38m21 0h38m21 0h38m-156 33h38m21 0h38m21 0h38m-156 33h38m21 0h38" stroke="#d1ded3" stroke-width="12"/><path d="M414 81v139" stroke="#acbbc5" stroke-width="6"/><circle cx="414" cy="97" r="13" fill="#dabd81"/><circle cx="414" cy="152" r="13" fill="#85aaa4"/><circle cx="414" cy="207" r="13" fill="#c79284"/><path d="M440 97h40m-40 55h40m-40 55h40" stroke="#b4c3b7" stroke-width="8" stroke-linecap="round"/></svg>