<svg xmlns="http://www.w3.org/2000/svg" viewBox="0 0 600 290"><rect width="600" height="290" fill="#e4eafe"/><circle cx="520" cy="40" r="190" fill="white" opacity=".05"/><circle cx="60" cy="310" r="170" fill="white" opacity=".04"/><path d="M75 95Q300 -20 516 90" fill="none" stroke="#8c9bd1" stroke-width="3" stroke-dasharray="8 9"/><circle cx="75" cy="95" r="7" fill="#4f60a4"/><circle cx="516" cy="90" r="7" fill="#4f60a4"/><g stroke="#b17e42" stroke-width="2"><path d="M162 139L244 103L325 139V226L244 263L162 226Z" fill="#ddb47b"/><path d="M162 139L244 179L325 139M244 179V263" fill="none"/><path d="M210 117L291 156L271 166L189 126Z" fill="#f8e4b8" stroke="none"/></g><rect x="345" y="116" width="99" height="122" rx="9" fill="#fff"/><g fill="none" stroke="#6576bc" stroke-width="4"><path d="M361 145L367 151L379 137M361 176L367 182L379 168M361 207L367 213L379 199M389 145H429M389 176H429M389 207H421"/></g></svg>
