<svg xmlns="http://www.w3.org/2000/svg" viewBox="0 0 600 290" shape-rendering="crispEdges"><path fill="#e8eee8" d="M0 0h300v290H0z"/><path fill="#f3e9df" d="M300 0h300v290H300z"/><path fill="#e5c277" d="M112 43h36v36h-36z"/><path fill="#d6b99b" d="M110 136h122v94H110zM130 110h22v26h-22zM184 101h23v35h-23z"/><path fill="#a67c64" d="M130 85h22v25h-22zM184 76h23v25h-23zM102 130h138v14H102zM156 187h29v43h-29z"/><path fill="#fff8e5" d="M129 156h17v20h-17zM191 156h17v20h-17z"/><path fill="#bc806e" d="M366 150h102v80H366z"/><path fill="#886f6f" d="M344 141h146v14H344zM358 127h118v14H358zM372 113h90v14H372zM389 99h56v14h-56zM400 87h34v12h-34z"/><path fill="#eed8ae" d="M382 168h20v20h-20zM433 168h20v20h-20zM407 199h22v31h-22z"/><path fill="#a6b9aa" d="M85 230h180v12H85zM337 230h180v12H337z"/><path fill="#9aafa5" d="M282 138h36v10h-36zM292 125h10v36h-10z"/></svg>